<mxfile host="app.diagrams.net" modified="2024-07-06T15:10:22.637Z" agent="Mozilla/5.0 (Macintosh; Intel Mac OS X 10_15_7) AppleWebKit/537.36 (KHTML, like Gecko) Chrome/126.0.0.0 Safari/537.36" etag="CHYSohmXCxVsoqvOm65t" version="24.6.4" type="github">
  <diagram name="第 1 页" id="kcHQdLR27bvTdgTu87UB">
    <mxGraphModel dx="2141" dy="746" grid="1" gridSize="10" guides="1" tooltips="1" connect="1" arrows="1" fold="1" page="1" pageScale="1" pageWidth="827" pageHeight="1169" math="0" shadow="0">
      <root>
        <mxCell id="0" />
        <mxCell id="1" parent="0" />
        <mxCell id="V1DBYt7TzoHOVX0YRmnc-1" value="" style="rounded=0;whiteSpace=wrap;html=1;" vertex="1" parent="1">
          <mxGeometry x="190" y="130" width="220" height="230" as="geometry" />
        </mxCell>
        <mxCell id="V1DBYt7TzoHOVX0YRmnc-2" value="&lt;font style=&quot;font-size: 20px;&quot;&gt;doddle-web&lt;/font&gt;" style="text;html=1;align=center;verticalAlign=middle;whiteSpace=wrap;rounded=0;" vertex="1" parent="1">
          <mxGeometry x="220" y="200" width="130" height="60" as="geometry" />
        </mxCell>
        <mxCell id="V1DBYt7TzoHOVX0YRmnc-3" value="" style="endArrow=classic;html=1;rounded=0;" edge="1" parent="1">
          <mxGeometry width="50" height="50" relative="1" as="geometry">
            <mxPoint y="200" as="sourcePoint" />
            <mxPoint x="190" y="200" as="targetPoint" />
          </mxGeometry>
        </mxCell>
        <mxCell id="V1DBYt7TzoHOVX0YRmnc-4" value="" style="endArrow=classic;html=1;rounded=0;entryX=-0.018;entryY=0.805;entryDx=0;entryDy=0;entryPerimeter=0;" edge="1" parent="1">
          <mxGeometry width="50" height="50" relative="1" as="geometry">
            <mxPoint x="-40" y="590" as="sourcePoint" />
            <mxPoint x="149.99999999999997" y="590.05" as="targetPoint" />
          </mxGeometry>
        </mxCell>
        <mxCell id="V1DBYt7TzoHOVX0YRmnc-7" value="&lt;font style=&quot;font-size: 13px;&quot;&gt;1. 数据源注册（元数据管理）&lt;/font&gt;" style="text;html=1;align=center;verticalAlign=middle;whiteSpace=wrap;rounded=0;" vertex="1" parent="1">
          <mxGeometry y="170" width="170" height="30" as="geometry" />
        </mxCell>
        <mxCell id="V1DBYt7TzoHOVX0YRmnc-8" value="a. 离线：&lt;div&gt;&lt;span style=&quot;white-space: pre;&quot;&gt;&#x9;&lt;/span&gt;注册数仓已经存在的数据源（hive表/hdfs），由磐石读/写&lt;div&gt;&lt;span style=&quot;white-space: pre;&quot;&gt;&#x9;&lt;/span&gt;注册数仓不存在的数据源，由磐石写入&lt;/div&gt;&lt;/div&gt;&lt;div&gt;b. 在线：通过datahub数据传输任务写入tair存储引擎&lt;/div&gt;" style="shape=callout;whiteSpace=wrap;html=1;perimeter=calloutPerimeter;align=left;" vertex="1" parent="1">
          <mxGeometry x="-110" y="40" width="340" height="110" as="geometry" />
        </mxCell>
        <mxCell id="V1DBYt7TzoHOVX0YRmnc-9" value="&lt;font style=&quot;font-size: 13px;&quot;&gt;2. 算子开发&lt;/font&gt;" style="text;html=1;align=left;verticalAlign=middle;whiteSpace=wrap;rounded=0;" vertex="1" parent="1">
          <mxGeometry x="-40" y="520" width="170" height="30" as="geometry" />
        </mxCell>
        <mxCell id="V1DBYt7TzoHOVX0YRmnc-13" value="&lt;ul&gt;&lt;li&gt;离线存储配置&lt;/li&gt;&lt;li&gt;在线存储配置&lt;/li&gt;&lt;li&gt;schema配置&lt;/li&gt;&lt;li&gt;schama序列化配置（在线 *）&lt;/li&gt;&lt;/ul&gt;" style="text;strokeColor=none;fillColor=none;html=1;whiteSpace=wrap;verticalAlign=middle;overflow=hidden;" vertex="1" parent="1">
          <mxGeometry x="-10" y="200" width="200" height="100" as="geometry" />
        </mxCell>
        <mxCell id="V1DBYt7TzoHOVX0YRmnc-14" value="" style="rounded=0;whiteSpace=wrap;html=1;" vertex="1" parent="1">
          <mxGeometry x="150" y="490" width="220" height="230" as="geometry" />
        </mxCell>
        <mxCell id="V1DBYt7TzoHOVX0YRmnc-15" value="&lt;font style=&quot;font-size: 20px;&quot;&gt;doddle-web&lt;/font&gt;" style="text;html=1;align=center;verticalAlign=middle;whiteSpace=wrap;rounded=0;" vertex="1" parent="1">
          <mxGeometry x="195" y="500" width="130" height="60" as="geometry" />
        </mxCell>
        <mxCell id="V1DBYt7TzoHOVX0YRmnc-16" value="&lt;font style=&quot;font-size: 13px;&quot;&gt;2.1 算子定义&lt;/font&gt;" style="text;html=1;align=left;verticalAlign=middle;whiteSpace=wrap;rounded=0;" vertex="1" parent="1">
          <mxGeometry x="-40" y="560" width="170" height="30" as="geometry" />
        </mxCell>
        <mxCell id="V1DBYt7TzoHOVX0YRmnc-17" value="&lt;font style=&quot;font-size: 13px;&quot;&gt;2.1 算子初始化&lt;/font&gt;" style="text;html=1;align=left;verticalAlign=middle;whiteSpace=wrap;rounded=0;" vertex="1" parent="1">
          <mxGeometry x="-40" y="660" width="170" height="30" as="geometry" />
        </mxCell>
        <mxCell id="V1DBYt7TzoHOVX0YRmnc-18" value="" style="endArrow=classic;html=1;rounded=0;entryX=-0.018;entryY=0.805;entryDx=0;entryDy=0;entryPerimeter=0;" edge="1" parent="1">
          <mxGeometry width="50" height="50" relative="1" as="geometry">
            <mxPoint x="-40" y="690" as="sourcePoint" />
            <mxPoint x="149.99999999999997" y="690.05" as="targetPoint" />
          </mxGeometry>
        </mxCell>
      </root>
    </mxGraphModel>
  </diagram>
</mxfile>
